<?xml version="1.0" encoding="utf-8"?>
<!-- Generator: Adobe Illustrator 21.1.0, SVG Export Plug-In . SVG Version: 6.00 Build 0)  -->
<svg version="1.1" id="图层_1" xmlns="http://www.w3.org/2000/svg" xmlns:xlink="http://www.w3.org/1999/xlink" x="0px" y="0px"
	 viewBox="0 0 612 792" style="enable-background:new 0 0 612 792;" xml:space="preserve">
<style type="text/css">
	.st0{fill:#0049A0;}
	.st1{fill:#003A8E;}
	.st2{fill:#0461BC;}
	.st3{fill:#0051B2;}
	.st4{fill:#097BD8;}
	.st5{fill:#108ADD;}
	.st6{fill:#30ABEF;}
	.st7{display:none;}
	.st8{display:inline;fill:#FF0000;stroke:#FF0000;}
	.st9{fill:#000333;enable-background:new    ;}
	.st10{font-family:'AdobeSongStd-Light-GBpc-EUC-H';}
	.st11{font-size:12px;}
</style>
<g>
	<path id="ft" onclick="SendYk('ft',this)" onmousemove="lakeColor('ft')" onmouseout="backColor('ft')" class="st0" d="
		M203.3,472.8c-1.5-1.2-4.3-1.6-6.3-0.8c-2,0.9-5,5.5-7,8.6s-5.4,2.9-7.8,3.9c-2.4,1-2.3,4.4-3.9,7c-1.6,2.6-5.3,0.6-7,0
		c-1.8-0.6-4.9-2.1-4.7-3.1s0.1-2-0.8-3.1s-5.9-5.4-7-6.3c-1.1-0.8-4.6-0.3-6.3-0.8s-4.9-4-5.5-4.7s-1.5,1.2-2.3,3.1
		c-0.9,2-4,1-4.7,0c-0.4-0.5-1.4-1.2-2.4-1.6c-0.1-0.3,0-1.3,0.8-2.3c0.9-1.2,3.8-4.5,3.9-5.5c0.1-1,0-9,0-9.4s4.5-4.9,4.7-5.5
		c0.1-0.6,0.1-3-0.8-3.9c-0.9-0.9-0.4-2.1,0-3.1s2.1-2.8,3.1-3.9s3-2.3,4.7-2.3c0.8,0,2.3,0,2.3,0s0.6-0.1,1.6,0
		c2.1,0.3,3.8,0.6,4.7,0s1.5-1.4,2.3-1.6c3.2-0.5,5.7,0.1,6.3,0.8c0.6,0.7,3.3,2.2,5.5,0.8c2.1-1.5,2.1-3,3.1-3.1
		c1.1-0.1,2.3,2,3.1,1.6c0.5-0.2,1.3,0.2,1.6,0c1,0.8,1.9,1.9,2.3,2.3c0.8,0.7,2.7,6,3.1,6.3c0.4,0.2,5.2-0.2,6.3,0s1.6,1.6,1.6,1.6
		s3.4,0.1,3.9,0s2.7-0.7,3.1-0.8c0.4,0,1.6,0.8,1.6,0.8v26.6C206.5,474.3,204.8,474,203.3,472.8z"/>
	<path id="ba" onclick="SendYk('ba',this)" onmousemove="lakeColor('ba')" onmouseout="backColor('ba')" class="st1" d="M75,463.4
		c0,0,1.9-1.4,3.9-2.3c1-0.5,3.1-1.8,3.1-1.8c0.8-1.1,0.6-2,0.8-2.1c0.9-0.4,3.4-2,5.5-4.7c1.3-1.7,1.2-5.4,1.6-6.3
		c0.8-1.9,2.5-3,5.5-5.5c2.9-2.4,2.4-4.6,2.3-5.5s-2.2-2.8-1.6-3.9s2-2.9,1.6-3.9s-2.3-3.9-2.3-3.9s3.7-4.3,3.9-5.5
		c0.2-1.2-1.6-2.7-1.6-3.9s2-2.7,2.3-3.1c0.4-0.4,0.2-2.5,0-3.1s0-6.3,0-6.3l3.9-3.1c0,0,1-0.3,2.8-3.9c1.8-3.5,7.6-3.3,9.7-3.2
		c2.1,0.1,2.6-0.9,3.1-1.6c0.5-0.6,2.5,1.1,3.1,1.6c0.3,0.2,0.6,0.4,0.8,0.8l3.9-3.9c0,0,1.6-1.8,0-4.7c-1.6-2.9-2.5-5-2.3-6.3
		c0.2-1.2,3.9-7.7,4.7-8.6s1.8-3.6,2.3-5.5c0.6-1.9,0.5-4.2,0-4.7c-0.7-0.7-2.9-1.6-2.3-3.1c0.5-1.4,1-3.7,1.6-3.9
		c0,0-3.8,0.4-5.5,0c-1.5-0.3-4.8-3.8-5.5-3.9c-0.6-0.1-2.6-0.4-3.9,0.8c-1.3,1.2-3.1,3.1-3.1,3.1h-4.7c0,0-0.7,0.8-1.6,1.6
		c-0.9,0.7-4.2,0.8-5.5,0s-3.4-2.2-4.7-2.3c-0.9-0.1-5.6,0-8.6,2.3c-2.3,1.8-3.8,5.5-3.1,7c0.7,1.5,1.4,3.2,0.8,3.9
		c-0.6,0.7-3.4-0.1-4.7-1.6c-1.3-1.5-3.2-1.3-3.9,0c-0.7,1.3-1.6,3.1-3.9,3.1s-4.8-0.3-5.5-0.8s-0.7-2.1,0-3.1s2.4-4.7,0.8-7
		s-2-4.3,0-5.5s4.3-1.5,3.9-3.9s-2.6-2.7-2.3-5.5s3.1-6.3,3.1-6.3s-0.2-5.6-0.8-7c-0.6-1.4-12.5-18-12.5-18s-1.1-1.2-0.8-4.7
		s1.1-6.7,4.7-7c3.6-0.4,6.7-0.1,7.8-0.8c1.1-0.6,3.3-3,3.1-6.3c-0.1-3.2,1-7,3.1-8.6c2.2-1.6,5.2-4.2,6.3-5.5
		c1.1-1.3,3.2-2.3,6.3-2.3c3.1,0,12.4,0.3,14.1,0.8s3.1,0.8,3.1,0.8s1.9-1,2.3-2.3s-0.2-4.5-2.3-5.5c-2.1-1-4.6-3.3-7-1.6
		c-2.4,1.8-4.9,3.2-8.6,3.1s-9.4-4-11.7-6.3s-8.2-3.5-10.2-0.8s-0.8,6.2-3.1,7c-2.3,0.9-9.4,0-9.4,0s-3.4-0.3-5.5,0.8
		c-2.1,1.1-7.8,4.4-7,7c0.7,2.6,3.7,3.9,3.1,5.5c-0.5,1.6-1.5,6.4-1.6,7c0,0.7-3.1,3.9-3.1,3.9h-2.3l-0.8,3.1c0,0-1.3,0.8-2.3,0.8
		s-6.3-0.8-6.3-0.8l-0.8,4.7l-1.6,3.1h-2.3l-3.9-1.6v3.9c0,0-5,1.3-5.5,3.9c-0.4,2.6,3.8,8.6,0,10.9s-15,6.9-15.6,9.4
		c-0.6,2.4-0.8,6.4-0.8,7.8c0,1.5,0,3.6,0,3.9s-1.6,2.3-1.6,2.3s0.7,9,1.6,12.5c0.8,3.5,2.9,6.2,3.1,9.4c0.2,3.2,3.9,6.3,4.7,7.8
		s3,6.9,4.7,8.6s2.6,1.8,3.1,3.1c0.5,1.3-1.1,2.7-0.8,3.9c0.3,1.2,10.1,20.1,10.1,20.1s2.8,7.9,3.2,8.8c0.3,0.8,0.3,1.5,0.8,1.6
		c0.5,0,3.9-3.9,3.9-3.9s2.5-0.8,3.1,1.6s-0.3,3.5,0.8,5.5s2.9,5.8,3.1,7s0.1,2.4,0.8,3.1s6.5,7.8,7,8.6c0.5,0.8,1.4,1.9,0.8,2.3
		c-0.6,0.4-2.5,0.6-1.6,1.6s1.9,1,2.3,1.6c0.4,0.6,2.2,2.5,1.6,3.1c-0.6,0.6-1.6,0.3-1.6,1.6s-0.1,1.4,0.8,1.6
		c0.9,0.1,2.9-0.9,4.7-0.8s3.1,0,3.1,0s0.4,3.2,0.8,3.9s1.6,0.8,1.6,0.8s4.7,0.1,4.7,0s1.5,0.6,2.3,0.8c0.8,0.1,1.7,0.2,2.3,0.8
		c0.7,0.6,1.3,1,1.6,1.6c0.2,0.6,0.8,1.6,0.8,1.6L75,463.4z"/>
	<path id="ns" onclick="SendYk('ns',this)" onmousemove="lakeColor('ns')" onmouseout="backColor('ns')" class="st2" d="M154,437.6
		c-1.7,0.1-3.7,1-4.7,1.6c-1,0.5-3.3,4-4.7,6.3c-1.4,2.2,0.3,3.9,0.8,4.7c0.5,0.8,0.5,2.5-0.8,3.1c-1.2,0.7-1.2,1.1-2.3,2.3
		c-1.2,1.2-1.6,2.3-1.6,2.3v10.2c0,0-3.3,3.2-3.9,3.9c-0.6,0.7-0.5,2.2-0.8,2.3c-0.3,0.1-0.5,0.6-1.6,0.8c-1,0.2-10.2-0.1-12.5,0
		s-16.2,1.7-17.2,1.6s-1.3,2.3-1.6,2.3c-0.3,0-0.8,0.8-0.8,0.8s-2.1,0.5-3.1,0.8s-0.3,2.3,0,3.1c0.3,0.8,0.3,2.3,0.8,3.1
		c0.5,0.8,0.1,8.3,0.8,9.4s4.3,4.7,4.7,5.5c0.4,0.8-0.3,1.5-1.6,1.6c-1.3,0.1-2.6,0.3-3.1,0s-1.7-0.9-1.6-0.8s-1.8,1-2.3,0.8
		s-1.4-3.3-1.6-3.9c-0.1-0.6-1.6-0.3-3.1-0.8s-1.9,2.1-2.3,2.3s-0.5,1.1-0.8,2.3c-0.3,1.2-1.7,2-1.6,2.3s-1.8,2-2.3,2.3
		c-0.5,0.4,1,2.1,0,2.3s-2.1-1.5-3.1-1.6s-0.3,1.3,0,1.6s0.9,1.4,1.6,1.6c0.7,0.1-0.4,1.5-0.8,1.6s-1.6,0-1.6,0s-2-0.5-3.1-0.8
		c-1.2-0.3-0.7,1.6-0.8,2.3s0.9,1.4,0.8,1.6c-0.1,0.2-0.7,2.4-1.6,3.1s-2.8,0.9-3.1,0s-0.7-1.8-0.8-2.3s1.2-0.8,1.6-1.6
		c0.3-0.8,0-1.6,0-1.6s-2.2-1.4-2.3-1.6c-0.1-0.1-0.7-1.6,0-2.3c0.7-0.7,0.3-2.1,0.8-3.1s-1-1.6-1.6-2.3c-0.5-0.7-1.8,0.3-2.3,0.8
		c-0.6,0.5-1.4,1.5-1.6,1.6s0.8,2.3,0.8,2.3l0.8,1.6c0,0-1.8,0.5-3.1,0c-1.3-0.5-0.8-1.9-1.6-3.9c-0.8-2-0.8-4.4-0.8-7
		s-0.7-2.2-2.3-3.9c-1.7-1.7-0.1-1.6,0.8-2.3c0.9-0.8,1.6-0.7,1.6-1.6c-0.1-0.8-0.6-0.9-1.6-1.6s-1.9-2.4-1.6-3.9s0.8-0.1,1.6,0
		s0.1-1.8,1.6-2.3c1.4-0.6,2.4,2.1,3.9,2.3c1.5,0.3,1.9,0.8,3.9,1.6c2,0.8,3.1-0.9,3.9-3.1s4.4-4.1,7-6.3c2.7-2.1-0.7-3.3-1.6-3.9
		s-0.8-4.3-0.8-6.3c0-1.9-2.8-1.1-3.9-2.3c-0.4-0.5-0.6-1.1-0.7-1.6c0.5-0.1,2.7-1.5,4.4-2.5c1-0.6,4.2-2.1,4.2-2.1s1.1-2.6,1.6-3.1
		c0.6-0.7,3.3-1.6,4.7-3.9c1.1-1.7,1-4.9,1.6-6.3c1.3-3.1,3.7-3.5,4.7-4.7s3.1-4.5,3.1-5.5c0-0.9-0.4-2.9-0.8-3.1
		c-0.3-0.2-1.4-1.6-0.8-2.3c0.6-0.8,1.5-2.8,1.6-3.1c0-0.3-0.2-1.8-0.8-2.3c-0.6-0.6-0.9-2.8-0.8-3.1s1.1-1.1,1.6-1.6
		c0.5-0.4,1.5-2.3,1.6-3.1c0.1-0.8-0.2-1.9-0.8-2.3c-0.5-0.5-0.6-2.1,0-2.3c0.6-0.3,1.2-1.9,1.6-3.1c0.3-1.3,0.1-1.7,0-2.3
		c-0.2-1.3-0.8-4.7,0.8-6.3c0.8-0.8,1.1-0.6,2.3-1.6c1.2-0.9,1.2-1.3,2.3-3.1c1.1-1.9,1.5-2.6,2.3-3.1s1.6-0.8,3.1-0.8
		c1.6,0,4.8,0,5.5,0c0.6,0,2-1.5,2.3-1.6c0.3,0,2.3,2.3,2.3,2.3s0,0,0.1,0c-0.1,0.5-0.2,1-0.1,1.5c0.3,1.4,2.7,5.8,3.9,6.3
		c1.2,0.5,4.1,0.6,6.3,0.8s2.9,0.2,3.9,1.6c1,1.3,3.1,3.9,3.9,4.7c0.8,0.8,1.4,1.2,2.3,1.6c1,0.4,2.9,1.1,3.1,1.6s0.4,0.8,0.8,2.3
		c0.3,1.6,0.6,2.8,0.8,3.9s2.3,4.7,2.3,4.7s2.5,3,3.9,3.9s1.6,0.8,1.6,0.8s0.1,7,0,9.4c0,0.6-0.3,0.7-0.8,0.8
		C154.5,437.6,154.2,437.6,154,437.6z"/>
	<path id="lh" onclick="SendYk('lh',this)" onmousemove="lakeColor('lh')" onmouseout="backColor('lh')" class="st3" d="
		M267.3,450.1c0,0,3.8,3,3.9,3.9s-0.5,1.2-2.3,2.3c-2,1.2-6.3,3.1-6.3,3.1s-3.6,0.5-4.7,0.8c-1,0.3-3.9,0.6-4.7-0.8s-4.4-6-7.8-4.7
		c-3.4,1.3-6.8,5.1-7.8,7.8c-1,2.7-5,6.6-9.4,6.3c-4.4-0.4-8.4,0.2-10.9,2.3c-2.5,2.1-5.3,4.6-7.8,3.9c-0.6-0.2-1.1-0.3-1.6-0.4v-27
		c0,0-1.2-1.7-2.3-2.3c-1.2-0.7-2.3,0.4-3.1,0.8s-2.1,0.1-3.1,0s-1.6-1.6-1.6-1.6s-2,0.3-4.7,0s-2.6-0.4-3.1-2.3
		c-0.4-1.6-3.7-5.2-5-6.5c1.9-1.7,4.5-4.2,5-5.2c0.3-0.6,0.8-1.1,0.8-1.6c0.7-0.6,1.1-1.3,1.6-1.6c0.8-0.5,3.2-0.7,4.7,0
		c1.6,0.8,2.9,0.5,3.9,1.6c1.1,1,4.7,4.7,4.7,4.7s2.4,0.8,4.7,0.8s5.9,1.4,7,1.6c1.1,0.1,3.8-1.6,5.5-1.6c1.6,0,4.7,0,4.7,0l10.2-7
		l7.8-4.7l5.5-2.3c0,0,5.3-2.7,7.8-2.3c2.5,0.4,4.4,0.3,5.5,3.9s2,6.9,4.7,7s6,1.1,7,6.3c0.9,4.5,1.6,5.5,1.6,5.5L267.3,450.1z"/>
	<path id="lg" onclick="SendYk('lg',this)" onmousemove="lakeColor('lg')" onmouseout="backColor('lg')" class="st2" d="
		M363.4,314.9c0.7,0.6,2.1,4.2,3.1,4.7l-2.3-0.8c0,0-0.4,0.1-0.8,0c-0.2-0.1-0.5,0.1-0.8,0c-0.8-0.2-1.4-0.8-1.6-0.8
		c-0.1,0.1-0.3,0-0.8,0s-0.7-0.3-0.8,0c-0.1,0.3-0.8,0.8-0.8,0.8v0.8c0,0-1.5,3.4-1.6,3.1c0.1,0.5-0.3,1.8-0.8,2.3s-1.1,1.6-1.6,3.1
		c-0.5,1.6-0.6,3.3-0.8,3.9s-2,3.7-1.6,4.7c0.5,1,1.3,3.3,1.6,3.9c0.3,0.7,1.5,1.8,1.6,2.3s0.1,1.5,0,1.6s0,0.8,0,0.8l-0.8,0.8
		l-1.6,0.8l-0.8,0.8v1.6l0.8,0.8l0.8,1.6c0,0,0.7,0.5,0.8,0.8c0.1,0.3-0.8,1.6-0.8,1.6l-0.8,0.8c0,0,0-0.5-0.8,0s-1.6,0.5-1.6,0.8
		c0.1,0.3-2.3,1.6-2.3,1.6s-0.6,0.9-0.8,0.8c-0.2-0.1-1.6,0-1.6,0s-0.8,0.5-1.5,1c-0.2,0.1-0.5,0.3-0.8,0.5c-0.2,0.2-0.2,0.2-0.1,0
		c-1,0.7-2.1,2.5-2.3,4.6c-0.1,2.2,0,7.4-3.9,10.2s-4.6,2.9-6.3,3.1c-1.7,0.2-3.4,0.1-3.9,0.8c-0.5,0.7-2.5,3.6-4.7,3.1
		s-2.9-1.6-5.5-1.6c-3,0-4.5,1.3-5.5,2.3c-0.9,1.1-1.7,3-1.6,3.9s-0.2,2.5-0.8,3.9c-0.6,1.4-1.8,6.3,0,7c-1.8-0.8-4.6-1-6.3,3.9
		c-1.4,4.1,1.1,7.8,2.3,10.2c1.2,2.3,0,4-0.8,4.7s-5.7,0.3-7,0.8s-6.2,3-8.6,3.9s-2.3,5.9-2.3,7s-1.9,4.3-3.1,6.3
		c-0.9,1.5-3.9,4.5-5.5,6.3c0-0.1,0-0.1,0,0c-0.4-1.8-1.3-6.8-3.1-9.4c-1.9-2.5-5.4-3-7-3.1s-2.4-6.1-3.1-7.8
		c-0.7-1.8-3.8-3.1-7-3.1c-3.2,0-11.8,4.1-15.6,6.3c-3.9,2.1-12.7,8.5-14.1,9.4c-1.4,0.8-3.9,0.7-4.7,0.8c-0.8,0.1-2.1-0.1-3.9,0.8
		c-1.9,0.9-4.4,0.3-5.5,0c-1.3-0.4-5.9-0.6-7-0.8c-1.1-0.2-3.3-4.3-5.5-5.5c-5.3-2.8-7.8-2.1-9.4-1.6c-0.8,0.3-1.9,0.8-2.5,1.2
		c-0.4-0.8-1.1-2.3-1.4-2.8c-0.3-0.5-2.4-3.1-3.9-3.1c-3,0.1-3.9-1.6-3.9-1.6s-4.1-7.6-4.7-8.6c-0.6-1-0.8-3.4-0.8-3.9
		s0.5-1.1,0.8-1.6s1.3-3.2,1.6-3.9c0.2-0.8,0.8-3.5,0.8-4.7c0-1.1-0.7-2.8-0.8-3.1c-0.1-0.4-0.8-0.8-0.8-0.8v-7.8c0,0-0.1-0.6,0-0.8
		c0.1-0.2,3.3,0.1,3.9,0c0.6-0.1,1.7-1.5,2.3-2.3c0.6-0.9,2.1-1.6,4.7-1.6c2.6,0,2.7,0.4,3.1,0.8c0.4,0.4,1.9,2.9,2.3,3.9
		c0.4,1,2.6,3.8,4.7,3.9c2.1,0.1,3.1-0.8,3.1-0.8s3.3-4,3.9-4.7c0.6-0.7,1.6-1.7,1.6-3.9c0-0.8,0.4-2.1,0-2.3
		c-0.4-0.3-1.7-2.3-1.6-3.1c0.3-1.7,0.7-3.1,0.8-3.9s0.1-3.6-0.8-4.7c-0.8-1.1-1.1-3-0.8-3.9s2.4-1.3,3.9-2.3s2.9-3.8,3.1-4.7
		c0.2-0.6,3.1-4.1,4.7-6.3c1.4,0,3.3,0,3.9,0c0.8,0.1,2.9,2.9,3.9,3.9s4.5,0.7,6.3,0.8c1.8,0.1,1.8,0.5,2.3,1.6
		c0.5,1,0.7,2.4,0.8,3.9s0.5,5.1,2.3,5.5c1.8,0.3,2.5-0.1,3.9,0.8s0.5,2.7,0.8,4.7s0.7,1.7,3.1,4.7c2.5,3,2.5,5.3,2.3,7
		s-4.9,2.3-7,3.1s-1.4,2.4,0.8,5.5s10,2.6,13.3,2.3c3.3-0.3,4-2.9,4.7-4.7c0.7-1.8,0.8-6.3,2.3-7.8s3.2-1.6,3.9-2.3
		c0.7-0.8,0.7-2.1,0-3.1s-1.7-2.4-1.6-3.1s2.8-1.1,3.9-1.6s0.9-1.9,0.8-4.7c-0.2-2.8,0.6-8.8,1.6-10.2c0.9-1.4,3.3-1.6,4.7-3.1
		c1.4-1.6,0.5-4.2,0.8-6.3c0.3-2,1.4-2.5,2.3-5.5s-3.1-5.5-3.1-5.5s-0.8-3.9-0.8-4.7c0-0.8-0.5-1.6-1.6-2.3
		c-1.1-0.8-2.3-5.5-2.3-5.5s-6.6,0.6-7.8-3.9c-1.3-4.5,3.1-9.5,4.7-10.9s8.6-1.6,9.4-2.3c0.8-0.8,0.5-2.5,1.6-3.1s5.6-0.3,7-0.8
		s3.3-3.4,3.9-4.7c0.6-1.3,2.2,1.3,3.1,3.9s1.1,3.6,2.3,3.9c1.3,0.3,3.8,1.9,4.7,3.9s3.8,4.5,7,5.5c3.3,0.9,8.9-7.5,10.2-9.4
		c1.3-1.9,4.5-1.4,7-1.6s2.7-2.3,3.9-3.9c1.3-1.6,3.3,0.5,5.5,2.3c2.2,1.9,7-2.5,8.6-3.9s5.2,0.8,7,1.6c1.9,0.8,3-1.1,4.7-3.1
		s5.5-0.6,6.3,0s4.8,0.8,6.3,2.3c1.4,1.6-1.6,5.3-1.6,6.3s0.7,1.3,0.8,2.3c0.1,1.5-2.8,3.2-3.1,5.5C359.2,314,362,313.8,363.4,314.9
		z M278.3,439.9L278.3,439.9C278.3,440,278.3,440,278.3,439.9z"/>
	<path id="yt" onclick="SendYk('yt',this)" onmousemove="lakeColor('yt')" onmouseout="backColor('yt')" class="st4" d="
		M358.8,433.7c0,0-2.8,1.1-3.1,1.6c-0.3,0.5-2.3,1.6-2.3,1.6s-2-3.4-2.3-3.9s0.3-1.4-0.8-2.3c-1-1-2.3-1.6-2.3-1.6s-2,1.6-2.3,2.3
		c-0.4,0.8-0.8,2.3-0.8,2.3s-2.9,1.6-3.9,0s-2.7-2.5-3.9-1.6c-1.2,1-5.3,4.5-5.5,5.5s0.3,2.5,0,3.9s-1.9,2.5-3.9,1.6
		c-2-1-5.9-3.1-9.4-3.1c-3.5-0.1-6.1,0.3-7,1.6s-2.1,2-1.6,2.3s1,0.5,1.6,0.8c0.5,0.3,1.2,1,0.8,1.6c-0.5,0.6-3.1,2.3-4.7,2.3
		s-3.1,0.8-3.1,0.8s-0.1,1,0,2.3s-0.3,2.5-0.8,2.3c-0.5-0.1-2.7-0.1-3.1-0.8s-1.8-1.7-2.3-1.6c-0.6,0.1-1.6,0-1.6,0s-0.5-0.1-0.8,0
		s-0.8,3.7-1.6,4.7c-0.8,1-4.4,3.5-5.5,4.7s-3,2-3.1,3.1s-0.5,1.9-0.8,2.3c-0.3,0.5-1,1.5-1.6,0.8c-0.5-0.7-0.4-1.6-0.8-2.3
		c-0.4-0.7-0.2-2.6-0.8-3.9c-0.6-1.3-0.8-2.4-1.6-2.3c-0.8,0.1-2.5-0.2-3.1,0s-2.3,0.8-2.3,0.8s-0.5-0.3-1.6,0c-1,0.3-1,0.8-2.3,0.8
		s-4.4,0.3-5.5,0c-0.1,0-0.7,0-0.8,0c2.5-1.2,6.1-2.8,7-3.1c1.7-0.7,1.6-2.3,1.6-3.1s-3-3.5-3.1-3.9c-0.1-0.5,4-4,5.5-5.5
		c2.5-2.1,9.2-8.5,12.5-14.9c0.9-1.7,0.5-3.5,0.8-5.5c0.5-2.9,3-2.9,6.3-4.7c3.3-1.8,6.6-1.7,7.8-1.6c1.2,0.1,2.9-0.7,4.7-3.1
		s-0.9-5.8-2.3-8.6c-1.1-2.2-1.2-4.6,0.8-7c0.9-1.1,1.7-1.4,3.1-1.6c1.5-0.1,5.4,2.1,6.3,3.1c0.9,1.2,1.1,1.7,2.3,3.9
		c1.2,2.2,1.3,5.1,1.6,5.5c0.5,0.7,0,2.2,0,3.1s0.7,3.7,2.3,3.9c1.8,0.2,4.6,2.1,5.5,1.6c0.9-0.6,1.2-3.8,2.3-4.7
		c1.1-0.9,3-1.9,3.9-1.6c0.9,0.4,4.3,3.7,5.5,3.9c1.2,0.2,5.2,0.7,5.5,0.8c0.3,0.1,1.5,0.8,2.3,0.8s2.5-0.8,3.1-0.8
		c0.7,0,3,0.6,3.1,0.8c0,0,0.2,0.1,0.5,0.1c0.1,0.2,0.2,0.4,0.3,0.7c0.6,1.1,0.8,3.9,0.8,3.9l-1.6,2.3c0,0-0.2,0.6,0,1.6
		s0.7,2.5,2.3,2.3c1.6-0.1,3.4-0.4,3.9,0c0.7,0.5,1.2,1.1,1.6,3.1L358.8,433.7z"/>
	<path id="gm" onclick="SendYk('gm',this)" onmousemove="lakeColor('gm')" onmouseout="backColor('gm')" class="st5" d="
		M146.9,336.8c-0.2,0.2-0.3,0.3-0.5,0.5l-0.1,0.1c-0.2,0.2-0.4,0.4-0.6,0.6l-0.1,0.1c-0.2,0.2-0.5,0.5-0.7,0.7l-0.1,0.1
		c-0.3,0.2-0.5,0.5-0.8,0.8l-0.1,0.1c-0.3,0.3-0.6,0.6-0.9,0.8c-0.1,0.1-0.1,0.1-0.2,0.2c-0.3,0.3-0.6,0.6-0.9,0.9
		c-0.1,0.1-0.1,0.1-0.2,0.2c-0.3,0.3-0.6,0.6-0.9,0.9l-0.1,0.1c-0.3,0.3-0.7,0.6-1,0.9c-0.1,0.1-0.2,0.1-0.2,0.2
		c-0.3,0.3-0.6,0.6-1,0.9c-0.1,0.1-0.2,0.1-0.2,0.2c-0.3,0.3-0.6,0.6-1,0.9l-0.1,0.1c-0.3,0.3-0.6,0.6-0.9,0.8
		c-0.1,0.1-0.1,0.1-0.2,0.2c-0.3,0.3-0.6,0.5-0.9,0.8c-0.1,0.1-0.1,0.1-0.2,0.2c-0.3,0.3-0.5,0.5-0.8,0.8l-0.1,0.1
		c-0.3,0.2-0.5,0.5-0.7,0.7c0,0,0,0-0.1,0.1c-3.8,0.9-4.1,0.6-6.7,0.3c-1.5-0.2-4.8-3.8-5.5-3.9c-0.6-0.1-4.2-0.4-5.5,0.8
		c-1.3,1.2-3.1,3.1-3.1,3.1h-4.7c0,0-0.7,0.8-1.6,1.6c-0.9,0.7-3.4,0.8-4.7,0c-1.3-0.8-2.6-2.2-3.9-2.3c-0.9-0.1-1.1,0-2.3,0
		c-0.9,0-5.6,0.8-8.6,3.1c-2.3,1.8-3.8,6.3-3.1,7.8c0.7,1.5,1.1,1.7,0.8,2.3c-0.4,0.8-1-0.1-2.3-1.6s-4.7-1.3-5.5,0
		c-0.7,1.3-1.6,3.2-3.9,3.1c-1.2,0-0.6,0.1-2.3,0c-0.4,0-1.1-1.3-0.8-1.6c0.9-0.8,2.4-6.3,0.8-8.6c-1.6-2.3-2-2.7,0-3.9
		c2-1.2,3.9-1.5,3.9-3.9c0-0.2,0-0.4,0-0.8c-0.2-2.4-2.5-3.7-2.3-5.5c0.2-2.8,3.1-5.5,3.1-5.5s-0.2-7.2-0.8-8.6
		c-0.6-1.4-12.5-18-12.5-18s-1.1-0.4-0.8-3.9v1.6c0.3-3.5,0.3-6.7,3.9-7c3.6-0.4,6.7-0.1,7.8-0.8c1.1-0.6,4-3,3.9-6.3
		c-0.1-3.2,0.2-7,2.3-8.6c2.2-1.6,5.2-4.2,6.3-5.5c1.1-1.3,2.4-2.3,5.5-2.3s11.6,0.3,13.3,0.8c1.7,0.5,3.1,0.8,3.1,0.8l0,0
		c0.5,0.5,0.4,0.8,1.6,1.6c1.4,0.9,2.2,1.2,4.7,1.6c2.5,0.3,3.8,0.3,5.5,1.6c1.6,1.3,2.8,2.7,3.1,3.1c0.3,0.5,5.9,0.7,7,1.6
		c1.1,0.8,7.8,7.8,7.8,7.8l3.1,0.8c0,0,2.3,2.3,2.3,5.5c0.1,3.2,0.2,6.3,1.6,7.8s0.8,6.4,1.6,7s3.1,3.1,3.1,3.1s-2.1,5.8-2.3,6.3
		s0.2,1.9,0.8,2.3s3,2.6,3.1,3.9C150.2,331.8,150.1,333.5,146.9,336.8z"/>
	<path id="lhua" onclick="SendYk('lhua',this)" onmousemove="lakeColor('lhua')" onmouseout="backColor('lhua')" class="st6" d="
		M211.8,350.8c-1.5,1.5-1.7,3.1-2.4,4.2c-1,1.6-1.4,2.6-4.6,4.4c-3.5,2-2.8,4.2-2.3,5.5c0.5,1.2,1.5,2.2,1.6,4.7
		c0,2.5-1.5,3.5-1.6,4.7c0,1.2,2,2.6,2.3,3.1c0.4,0.6,0.3,2.7,0,3.9c-0.3,1.2-4.1,4.8-4.7,5.5s-1.8,1.3-3.1,0.8
		c-1.3-0.6-1.9-1.9-3.1-4.7c-1.2-2.8-3.6-3.8-4.7-3.9c-1.1-0.1-4.9,0.1-6.3,0.8c-1.3,0.7-1.5,2.2-1.6,2.3c0,0.1-1.5,0.8-3.9,0.8
		s-2.3,2.3-2.3,2.3s0,5.9,0,7s0.1,0.9,0.8,2.3c0.6,1.4,0.4,2.9,0,6.3c-0.4,3.3-2.1,3.9-2.3,6.3s1.6,5.5,1.6,5.5l4.7,9.4l6.3,1.6
		l3.1,5.5l-6.3,7c0,0-2.6-2.2-3.1-2.3c-0.6-0.1-1.6,0.4-2.3,2.3c-0.8,2-3.9,2.3-3.9,2.3s-1.5-2.6-6-2.6c-4.8,0-5,1.7-5.8,1.8
		c-0.4,0.1-2.5,0-3.9,0c-0.7,0-0.8-0.4-0.8-0.8c0-2.4,0.2-9.8,0-10.2c-0.1-0.3-1-0.5-1.9-0.9c-1.4-1.3-3.2-3.1-4.4-4.5
		c-0.5-0.6-0.8-1.2-1.1-1.9c-0.1-0.2-0.1-0.3-0.2-0.5c0-0.1,0-0.1-0.1-0.2c-0.1-0.4-0.2-0.8-0.3-1.3s-0.2-0.9-0.3-1.4
		c-0.2-1.1-0.3-2-0.5-2.5c-0.1-0.2-0.3-0.4-0.5-0.7c-0.5-1.2-1.1-1.9-1.9-2.5c-1.5-1-4.8-2.2-5.5-3.1s-2.9-4.7-4.7-5.5
		c-1.2-1.2-4.5-0.6-7.8-0.8c-1.5-0.5-2.5-1.9-3.1-3.1c-0.6-1.3-0.3-2.2-0.8-3.1c-0.2-1.4,0.4-1,0.8-1.6c0.3-0.5,4.7-5,4.7-7
		s-0.9-2.8-2.3-5.5c-1.5-2.7,0-4.7,0-4.7s1.6-2.9,4.7-8.6c3.1-5.6,1.7-9.7,0.8-10.2c-1-0.5-1.4-0.7-1.6-1.6
		c-0.2-0.7,1.6-3.1,1.6-3.1l17.2-17.2c0,0,1.5-2.1,1.6-3.9s-2.4-4.5-3.1-5.5c-0.8-0.9-0.8-1.7-0.8-2.3c0-0.7,2.3-4.7,2.3-4.7v-0.1
		c0.5,0.5,1.2,1.2,1.5,1.7c0.6,0.8,5.5,0,5.5,0s1.1,0,1.6-0.8c0.4-0.7,3.5-1.6,3.9-1.6c0.4,0.1,3.8,1.3,3.9,1.6
		c0.1,0.2,2.4,0.1,3.1,0s6.3-3.1,6.3-3.1s2.3,2.1,2.3,3.1s-1.4,2.2-1.6,3.9c-0.2,1.7,3.1,2.3,3.1,2.3h4.7c0,0,0.1,0.1,0,0.8
		c-0.1,0.7,0.1,2.2,1.6,3.9c1.4,1.7,2.9,2.8,4.7,3.9s4.4-0.4,5.5-0.8s1.7-2.9,2.3-3.1c0.7-0.2,3.9-0.3,5.5,0.8
		c1.5,1.1,2.4,2.6,3.1,3.9s0.6,4.9,0.8,5.5s3.6,3.5,4.7,4.7c1.1,1.1,1.6,2.3,1.6,2.3S213.3,349.3,211.8,350.8z"/>
	<path id="ps" onclick="SendYk('ps',this)" onmousemove="lakeColor('ps')" onmouseout="backColor('ps')" class="st5" d="
		M411.1,379.7c-3.2,1.7-3.6,4.5-3.9,6.3c-0.3,1.7,1.6,4.7,1.6,4.7l-6.3,5.5l-3.9,0.8c0,0-2.8,1.9-4.7,3.1c-1.9,1.3-3.7,1.9-7,2.3
		s-3.8,1.9-3.9,4.7c-0.1,2.8-1.8,1.7-2.3,1.6s-3.2-2.5-4.7-4.7c-2.2-1.5-3.6-0.5-3.9,0.8s0,4.7,0,4.7s1,0.8,1.6,1.6
		c0.6,0.8-0.8,0.8-0.8,0.8s-1.2,0-2.3,0c-0.1,0-1.6,0.3-1.6,1.6c0,0.8,0.1,1.1,0,1.6c-0.2,0.8-0.2,1-0.8,1.6
		c-0.5,0.4-1.2,0.6-2.3,0.8s-2.7-2-3.1-2.3s-3.5-2.9-4.7-3.1c-0.7-0.1-1.6,0.6-3.1,1.6s-2.3,3.1-2.3,3.1l-1.6-0.8c0,0-0.2,0-1.6,0
		c-1.3,0-2.3,0.6-3.1,0.8c-0.4,0.1-3.7-0.9-3.1-0.8c-2.5-0.4-4.7-0.8-4.7-0.8s-2.3-2.1-3.9-3.1c-2.3-1.4-5.7-0.2-6.3,0.8
		c-0.6,1-2.3,4.7-2.3,4.7l-1.6-0.8c0,0-3.6-0.3-3.9-1.6c-0.3-1.2-0.2-1.2,0-2.3c0.2-1.1-0.2-4.6-0.8-6.3c-0.3-0.8-2.5-4.5-3.1-5.5
		c-0.9-1.4-4.5-3.9-6.3-4.7l0,0c0-0.6,0-1.5,0-2.3c0.1-1.6,0.3-3.1,0.8-4.7c0.6-1.8,0.6-4.7,1.6-5.5c0.9-0.8,2.6-2.4,3.9-2.3
		s2.7-0.2,3.9,0.8c1.2,1,4.3,1,5.5,0s2.2-3,3.1-3.1c0.9-0.2,3.6,0,5.5-0.8s6.3-4.3,7-5.5s1.5-4.6,1.6-6.3c0.1-1.2,0-3.4,0.6-4.6
		c-0.1,0,0-0.1,0.2-0.3c0.1-0.2,0.2-0.3,0.4-0.4c0.7-0.7,1.9-1.8,1.9-1.8h0.8c0,0,1.7-0.2,2.3-0.8c0.7-0.6,2.6-2.1,3.1-2.3
		c0.5-0.3,1.6-0.8,1.6-0.8s2.4-1.6,2.3-2.3c-0.1-0.8,0.5-2,0-2.3c-0.5-0.4-2.6-1.7-2.3-2.3c0.3-0.7,1-1.2,1.6-1.6
		c0.6-0.3,1.6-1.3,1.6-2.3s-0.5-2.4-0.8-3.1s-1.3-1.6-1.6-2.3c-0.4-1.1-0.9-2.4-0.8-3.1s0.3-1.8,0.8-2.3s0.8-1.8,0.8-2.3
		s0.5-1.4,0.8-2.3s0.8-3.6,1.6-3.9c0.7-0.3,0.3-1.9,0.8-2.3c0.5-0.5,0.2,0.1,0.8-0.8c0.6-0.9,0.7-1.4,0.8-1.6c0.1-0.1,0-0.8,0-0.8
		s3.7,1,3.1,0.8c0.5,0.2,2.5,0.8,3.1,0.8c0,0.2-0.2-0.3,0,0c0.6,1-1.4,1.9,0,3.1c1.2,1,1.6-0.8,3.1-0.8c1.7,0,2.7-1.4,3.9,0
		c1.7,1.9,2.2,2.3,3.9,3.9c1.7,1.6,3.6,1.4,7,1.6c3.2,0.1,3-2.7,3.1-4.7c0.1-1.3-0.1-4-0.1-4s0.7-1.8,1.7-3c1.1-1.3,3.1-3.1,3.1-3.1
		l2.3,2.3c0,0,2.5-0.5,3.1,0c1.9,1.6,3.1,8.9,3.9,9.4s2.8-0.3,3.1,1.6c0.1,0.6-0.8,1.9-0.8,3.1c0,1-2,2.1-2.3,3.1
		c-0.3,0.8,1.1,1.5,0.8,2.3c-0.2,0.7,0,2.3,0,2.3s-0.6,3.2-1.6,3.9c-2.4,1.7-4.6,1.5-6.3,3.9c-0.5,1-0.8,1.8-1,2.4
		c0,0.7,0.1,1.4,0.3,2.3c0.6,2.8,1.4,3.3,2.3,4.7c0.9,1.4,2.1,3,4.7,4.7s2.3,3.3,4.7,5.5c2.3,2.2,5.8,2.3,7,2.3s3.1,2,3.1,4.7
		S414.3,378,411.1,379.7z"/>
	<path id="dp" onclick="SendYk('dp',this)" onmousemove="lakeColor('dp')" onmouseout="backColor('dp')" class="st6" d="
		M527.6,495.4c-0.1,0.3-3.1,1-3.1,1.6s-1.6,3.1-1.6,3.1l-3.9,0.8l-0.8,2.3l-8.6,0.8l-0.8,3.1c0,0-1-0.3-2.3-0.8
		c-1.3-0.4-4.5-1.1-5.5,0s0.3,3.2,0.8,3.1c0.4-0.1-1.3,1-3.1,0.8c-1.8-0.2-2.8-0.8-4.7-0.8c-1.9,0-6.1,5.2-7,5.5
		c-0.9,0.2-3.7-1.6-4.7-3.1c-1-1.6-2.2-0.7-7,0c-4.8,0.7-8.3,7.8-9.4,9.4s2.1,1.8,3.1,2.3c1,0.6-0.1,1.2-2.3,2.3
		c-2.2,1.1-2.6,1.7-3.9,2.3c-1.3,0.7-0.2,1.8-0.8,3.1c-0.6,1.3-2.1,1-6.3,1.6c-4.1,0.6-5.9-2.1-6.3-4.7c-0.4-3,0.4-5.8-0.8-7
		c-1.2-1.2-0.6,0-4.7-0.8s-2.7-4.1-2.3-5.5c0.3-1.3,1.6-3.9,1.6-3.9s-0.6,0.3-1.6,0s0.2-1.9,0.8-3.1c0.6-1.2,0.4-1.1,0-2.3
		c-0.4-1.2-2.9-0.1-3.9-0.8c-1-0.7-0.4-1.2,0.8-2.3c1.2-1.1,1-2.1,0.8-3.9s-1.8-2.9-2.3-4.7c-0.6-1.8,2.6-3,3.9-3.9
		s-0.2-2.3-0.8-3.1c-0.6-0.8,1.7-2,3.1-2.3c1.5-0.3,1.2-2.8,0.8-3.1c-0.4-0.3-1.7-2-1.6-3.9s-3.2-3.6-3.9-3.9s0.2-2.2,0.8-3.1
		c0.6-0.9-0.8-1.8-3.9-2.3s-4.8-2.3-6.3-4.7c-1.4-2.3-1.2-7-2.3-9.4c-1.1-2.3-5.1-1.3-7-0.8c-1.9,0.6-3.2,0.9-4.7,0
		s-2.3-2.2-2.3-3.9c0-1.7,1.6-3,0.8-5.5c-0.8-2.5-1.1-0.8-2.3-3.1c-1.2-2.3-3.9-5.9-6.3-7.8c-2.3-1.9-2-1.6-4.7-1.6
		s-1.9-1.8-2.3-3.9s-5.1,0.1-6.3,0c-1.1-0.1-1-0.9-2.3-2.3c-1.3-1.5-2-1.7-5.5-1.6s-7.1,1.7-10.2,2.3c-3,0.7-2,2.1-2.3,3.1
		s-3-1.6-5.5-1.6s-2.8,2-3.1,3.1c-0.2,0.5-0.9,0.9-1.6,1.2c-0.3-1.5-0.9-2.8-1.5-3.5c-1-1.1-2-0.7-3.9-0.8c-1.9-0.1-2-0.5-2.3-1.6
		c-0.4-1.1,1.3-1.8,1.6-3.1c0.3-1.3-0.1-2.2-0.8-3.9c-0.3-0.8-0.7-1.4-1-1.8c0.4-0.3,0.7-0.8,1-1.4c0.8-1.7,3.2-2.1,3.9-1.6
		c0.7,0.6,2.7,2.3,3.9,3.1s3,2.2,4.7,1.6c1.7-0.7,3-3.6,3.1-4.7c0.1-1,2-0.7,3.1-0.8c1.2-0.1,1.8-2.2,0.8-3.9
		c-1-1.7-0.7-2.8-0.8-3.9c-0.1-1.1,0.3-1,0.8-0.8c0.5,0.3,1.4,1.4,2.3,2.3c1,1,2.5,2.9,4.7,3.1c2.3,0.2,3-0.5,3.1-1.6
		c0.1-1,0.2-3.3,0.8-3.9c0.6-0.6,3.2-1,5.5-1.6s7.1-4.2,8.6-4.7s3.8-1,5.5-2.3c1.5-1.2,4.5-4.4,5.3-5.3c1.7,0.2,4.4,0.6,5.7,0.6
		c1.9,0,2.6-1,3.9-2.3s2.5-1.6,6.3-1.6s3.2,1.8,5.5,3.1c2.2,1.3,6.4,0.8,7.8,0.8c1.5,0,3.1-2.2,4.7-3.1s6-1.3,10.2,0.8
		c4.1,2.1,0.7,6.8-1.6,8.6c-2.2,1.8-3.1,4.5-2.3,7s7.1,0.4,7.8,0c0.7-0.4,1.1-1.5,3.1-2.3c2-0.9,3.2,0.2,3.9,0
		c0.7-0.2,0.6-2.1,1.6-3.1s5.1,2.1,7,3.1s16.9,0.1,20.3-0.8c3.5-0.9,4.5-1.9,4.7-3.1s1.6-1.6,1.6-1.6s1.5,1.6,2.3,1.6
		s1.7-0.1,1.6-0.8c-0.1-0.7,2.3-0.8,2.3-0.8s0.2,2,1.6,2.3c1.3,0.3,3.1,0,3.1,0s0.3,0.8,0,2.3c-0.3,1.6-0.9,2.3-1.6,3.1
		c-0.7,0.8-0.8,0.8-0.8,2.3c0,1.6,0,1.3-3.9,3.1c-3.9,1.8-2.6,9.4-2.3,10.9c0.2,1.6-4,4.8-6.3,5.5c-2.2,0.7-3.2,1-6.3,2.3
		c-3,1.3-6.9,9.6-7.8,10.9s-0.7,1-2.3,0c-1.7-1-3.9-0.9-5.5,0s-1.8,1.6-5.5,1.6s-4.2-1.6-7.8-2.3c-3.6-0.8-5.5,2.5-7,4.7
		c-1.6,2.2-2,6.5-2.3,9.4s-0.1,11.4,0,12.5s0.2,2,1.6,3.1c1.3,1.1,3.7,0.8,5.5,1.6c1.8,0.8,3-0.1,3.9-0.8s0.9-2.7,1.6-3.9
		s0.4-2.7,1.6-3.9c1.1-1.2,2.3-0.7,2.3-1.6s0.1-2.8,0.8-3.9c0.7-1.1,3,1.7,3.9,1.6s0.8-0.8,0.8-0.8s0.4-1.3,0.8-2.3
		c0.3-1,1.6,0.1,2.3,0.8s1.2,0.7,1.6,0.8c0.3,0.1,2.3-2.3,2.3-2.3s0.7,1.2,1.6,2.3c0.9,1.1,0.4,4,0.8,5.5c0.3,1.5,5,1.8,6.3,2.3
		c1.2,0.6,2.1,4,3.1,5.5s3.9,1,5.5,0.8s1.6,1.6,1.6,1.6h6.3c0,0,0.7,0.2,0.8,0.8c0.1,0.6,1.6,0.8,1.6,0.8s3,0.4,3.9,0.8
		c0.9,0.3,0.3,1.7,0.8,2.3c0.4,0.7,1.7-1.5,3.1-2.3c1.5-0.9,2.2-0.7,2.3,0.8s-2.3,4.9-2.3,6.3c0,1.3,1.2,2.1,6.3,3.9
		C527.1,487,527.7,495.1,527.6,495.4z"/>
	<path class="st7" d="M198.1,460.2c-2.6,0-4.7,2.1-4.7,4.7s2.1,4.7,4.7,4.7c2.6,0,4.7-2.1,4.7-4.7
		C202.8,462.3,200.7,460.2,198.1,460.2z M198.1,468.9c-2.2,0-4-1.8-4-4s1.8-4,4-4s4,1.8,4,4S200.4,468.9,198.1,468.9z M198.1,462.2
		c-1.5,0-2.7,1.2-2.7,2.7s1.2,2.7,2.7,2.7s2.7-1.2,2.7-2.7S199.6,462.2,198.1,462.2z"/>
	<g id="ftpoint" class="st7">
		<circle class="st8" cx="173.5" cy="461.4" r="1.6"/>
	</g>
	<g id="bapoint" class="st7">
		<circle class="st8" cx="78.2" cy="446.6" r="1.6"/>
	</g>
	<g id="nspoint" class="st7">
		<circle class="st8" cx="96.1" cy="473.1" r="1.6"/>
	</g>
	<g id="lhpoint" class="st7">
		<circle class="st8" cx="225.1" cy="448.1" r="1.6"/>
	</g>
	<g id="ytpoint" class="st7">
		<circle class="st8" cx="285.3" cy="455.2" r="1.6"/>
	</g>
	<g id="gmpoint" class="st7">
		<circle class="st8" cx="109.4" cy="320" r="1.6"/>
	</g>
	<g id="lhuapoint" class="st7">
		<circle class="st8" cx="155.5" cy="388" r="1.6"/>
	</g>
	<g id="pspoint" class="st7">
		<circle class="st8" cx="362.7" cy="373.1" r="1.6"/>
	</g>
	<g id="dppoint" class="st7">
		<circle class="st8" cx="443.9" cy="441.1" r="1.6"/>
	</g>
</g>
<a id="ftname">
	
		<text id="fttext" onclick="SendYk('ft')" onmousemove="lakeColor('ft')" onmouseout="backColor('ft')" transform="matrix(1 0 0 1 154.7574 474.708)" class="st9 st10 st11">福田区</text>
</a>
<a id="baname">
	
		<text id="batext" onclick="SendYk('ba')" onmousemove="lakeColor('ba')" onmouseout="backColor('ba')" transform="matrix(1 0 0 1 53.9312 441.0996)" class="st9 st10 st11">宝安区</text>
</a>
<a id="nsname">
	
		<text id="nstext" onclick="SendYk('ns')" onmousemove="lakeColor('ns')" onmouseout="backColor('ns')" transform="matrix(1 0 0 1 88.3213 467.6738)" class="st9 st10 st11">南山区</text>
</a>
<a id="lhname">
	
		<text id="lhtext" onclick="SendYk('lh')" onmousemove="lakeColor('lh')" onmouseout="backColor('lh')" transform="matrix(1 0 0 1 229.0093 451.2598)" class="st9 st10 st11">罗湖区</text>
</a>
<a id="lgname">
	
		<text id="lgtext" onclick="SendYk('lg')" onmousemove="lakeColor('lg')" onmouseout="backColor('lg')" transform="matrix(1 0 0 1 274.0318 368.5947)" class="st9 st10 st11">龙岗区</text>
</a>
<a id="ytname">
	
		<text id="yttext" onclick="SendYk('yt')" onmousemove="lakeColor('yt')" onmouseout="backColor('yt')" transform="matrix(1 0 0 1 278.25 450.4785)" class="st9 st10 st11">盐田区</text>
</a>
<a id="gmname">
	
		<text id="gmtext" onclick="SendYk('gm')" onmousemove="lakeColor('gm')" onmouseout="backColor('gm')" transform="matrix(1 0 0 1 84.4136 314.4805)" class="st9 st10 st11">光明新区</text>
</a>
<a id="lhuaname">
	
		<text id="lhuatext" onclick="SendYk('lhua')" onmousemove="lakeColor('lhua')" onmouseout="backColor('lhua')" transform="matrix(1 0 0 1 131.3096 383.2607)" class="st9 st10 st11">龙华新区</text>
</a>
<a id="psname">
	
		<text id="pstext" onclick="SendYk('ps')" onmousemove="lakeColor('ps')" onmouseout="backColor('ps')" transform="matrix(1 0 0 1 339.9961 386.3872)" class="st9 st10 st11">坪山新区</text>
</a>
<a id="dpname">
	
		<text id="dptext" onclick="SendYk('dp')" onmousemove="lakeColor('dp')" onmouseout="backColor('dp')" transform="matrix(1 0 0 1 418.9385 435.6279)" class="st9 st10 st11">大鹏新区</text>
</a>
</svg>
